<mxfile host="app.diagrams.net" modified="2023-06-23T11:03:43.081Z" agent="Mozilla/5.0 (Windows NT 10.0; Win64; x64) AppleWebKit/537.36 (KHTML, like Gecko) Chrome/114.0.0.0 Safari/537.36" etag="ZLJkeG2tFQBHVQLXLEiR" version="21.5.0" type="device">
  <diagram id="hI4w0CLzqAGN1xO7g2qY" name="Page-1">
    <mxGraphModel dx="1050" dy="587" grid="1" gridSize="10" guides="1" tooltips="1" connect="1" arrows="1" fold="1" page="1" pageScale="1" pageWidth="850" pageHeight="1100" math="0" shadow="0">
      <root>
        <mxCell id="0" />
        <mxCell id="1" parent="0" />
        <mxCell id="xfo9One8N8m6iYTnwiT2-1" value="TPNT" style="whiteSpace=wrap;html=1;align=center;" parent="1" vertex="1">
          <mxGeometry x="400" y="250" width="100" height="50" as="geometry" />
        </mxCell>
        <mxCell id="xfo9One8N8m6iYTnwiT2-2" value="Thuộc" style="shape=rhombus;perimeter=rhombusPerimeter;whiteSpace=wrap;html=1;align=center;" parent="1" vertex="1">
          <mxGeometry x="410" y="120" width="80" height="50" as="geometry" />
        </mxCell>
        <mxCell id="xfo9One8N8m6iYTnwiT2-4" value="TacGia" style="whiteSpace=wrap;html=1;align=center;" parent="1" vertex="1">
          <mxGeometry x="395" y="50" width="110" height="40" as="geometry" />
        </mxCell>
        <mxCell id="xfo9One8N8m6iYTnwiT2-6" value="CuocTrienLam" style="whiteSpace=wrap;html=1;align=center;" parent="1" vertex="1">
          <mxGeometry x="400" y="490" width="100" height="50" as="geometry" />
        </mxCell>
        <mxCell id="xfo9One8N8m6iYTnwiT2-9" value="LoaiSoHuu" style="whiteSpace=wrap;html=1;align=center;" parent="1" vertex="1">
          <mxGeometry x="249.38" y="80" width="100" height="40" as="geometry" />
        </mxCell>
        <mxCell id="xfo9One8N8m6iYTnwiT2-11" value="LoaiDiMuon" style="whiteSpace=wrap;html=1;align=center;" parent="1" vertex="1">
          <mxGeometry x="260.01" y="400" width="81.25" height="40" as="geometry" />
        </mxCell>
        <mxCell id="xfo9One8N8m6iYTnwiT2-12" value="Thuộc" style="shape=rhombus;perimeter=rhombusPerimeter;whiteSpace=wrap;html=1;align=center;" parent="1" vertex="1">
          <mxGeometry x="261.88" y="503" width="77.5" height="47.5" as="geometry" />
        </mxCell>
        <mxCell id="xfo9One8N8m6iYTnwiT2-14" value="Thuộc" style="shape=rhombus;perimeter=rhombusPerimeter;whiteSpace=wrap;html=1;align=center;" parent="1" vertex="1">
          <mxGeometry x="600" y="250" width="80" height="50" as="geometry" />
        </mxCell>
        <mxCell id="xfo9One8N8m6iYTnwiT2-15" value="Thuộc" style="shape=rhombus;perimeter=rhombusPerimeter;whiteSpace=wrap;html=1;align=center;" parent="1" vertex="1">
          <mxGeometry x="261.26" y="310" width="78.75" height="46.25" as="geometry" />
        </mxCell>
        <mxCell id="xfo9One8N8m6iYTnwiT2-16" value="HoiHoa" style="whiteSpace=wrap;html=1;align=center;" parent="1" vertex="1">
          <mxGeometry x="710" y="180" width="50" height="30" as="geometry" />
        </mxCell>
        <mxCell id="xfo9One8N8m6iYTnwiT2-17" value="DieuKhacTacTuong" style="whiteSpace=wrap;html=1;align=center;" parent="1" vertex="1">
          <mxGeometry x="710" y="260" width="110" height="30" as="geometry" />
        </mxCell>
        <mxCell id="xfo9One8N8m6iYTnwiT2-18" value="LoaiHinhKhac" style="whiteSpace=wrap;html=1;align=center;" parent="1" vertex="1">
          <mxGeometry x="710" y="345" width="80" height="30" as="geometry" />
        </mxCell>
        <mxCell id="xfo9One8N8m6iYTnwiT2-29" value="" style="fontSize=12;html=1;endArrow=ERoneToMany;rounded=0;entryX=0.5;entryY=0;entryDx=0;entryDy=0;exitX=0.5;exitY=1;exitDx=0;exitDy=0;" parent="1" source="xfo9One8N8m6iYTnwiT2-2" target="xfo9One8N8m6iYTnwiT2-1" edge="1">
          <mxGeometry width="100" height="100" relative="1" as="geometry">
            <mxPoint x="400" y="190" as="sourcePoint" />
            <mxPoint x="540" y="200" as="targetPoint" />
          </mxGeometry>
        </mxCell>
        <mxCell id="xfo9One8N8m6iYTnwiT2-32" value="" style="fontSize=12;html=1;endArrow=ERmandOne;rounded=0;entryX=0.5;entryY=1;entryDx=0;entryDy=0;exitX=0.5;exitY=0;exitDx=0;exitDy=0;" parent="1" source="xfo9One8N8m6iYTnwiT2-2" target="xfo9One8N8m6iYTnwiT2-4" edge="1">
          <mxGeometry width="100" height="100" relative="1" as="geometry">
            <mxPoint x="420" y="170" as="sourcePoint" />
            <mxPoint x="520" y="70" as="targetPoint" />
          </mxGeometry>
        </mxCell>
        <mxCell id="xfo9One8N8m6iYTnwiT2-34" value="" style="fontSize=12;html=1;endArrow=ERmandOne;rounded=0;entryX=0;entryY=0.5;entryDx=0;entryDy=0;exitX=1;exitY=0.5;exitDx=0;exitDy=0;" parent="1" source="xfo9One8N8m6iYTnwiT2-14" target="xfo9One8N8m6iYTnwiT2-17" edge="1">
          <mxGeometry width="100" height="100" relative="1" as="geometry">
            <mxPoint x="630" y="400" as="sourcePoint" />
            <mxPoint x="730" y="300" as="targetPoint" />
          </mxGeometry>
        </mxCell>
        <mxCell id="xfo9One8N8m6iYTnwiT2-39" value="" style="fontSize=12;html=1;endArrow=ERoneToMany;rounded=0;entryX=0.5;entryY=1;entryDx=0;entryDy=0;exitX=0.5;exitY=0;exitDx=0;exitDy=0;" parent="1" source="Fws-2zVj7TP42gCINuSB-1" target="xfo9One8N8m6iYTnwiT2-1" edge="1">
          <mxGeometry width="100" height="100" relative="1" as="geometry">
            <mxPoint x="440" y="380" as="sourcePoint" />
            <mxPoint x="450" y="300" as="targetPoint" />
          </mxGeometry>
        </mxCell>
        <mxCell id="xfo9One8N8m6iYTnwiT2-40" value="" style="fontSize=12;html=1;endArrow=ERoneToMany;rounded=0;entryX=0.5;entryY=0;entryDx=0;entryDy=0;exitX=0.5;exitY=1;exitDx=0;exitDy=0;" parent="1" source="Fws-2zVj7TP42gCINuSB-1" target="xfo9One8N8m6iYTnwiT2-6" edge="1">
          <mxGeometry width="100" height="100" relative="1" as="geometry">
            <mxPoint x="440" y="415" as="sourcePoint" />
            <mxPoint x="460" y="410" as="targetPoint" />
          </mxGeometry>
        </mxCell>
        <mxCell id="xfo9One8N8m6iYTnwiT2-41" value="" style="fontSize=12;html=1;endArrow=ERoneToMany;rounded=0;entryX=0.5;entryY=1;entryDx=0;entryDy=0;exitX=0.5;exitY=0;exitDx=0;exitDy=0;" parent="1" source="xfo9One8N8m6iYTnwiT2-12" target="xfo9One8N8m6iYTnwiT2-11" edge="1">
          <mxGeometry width="100" height="100" relative="1" as="geometry">
            <mxPoint x="301" y="490" as="sourcePoint" />
            <mxPoint x="370" y="430" as="targetPoint" />
          </mxGeometry>
        </mxCell>
        <mxCell id="Fws-2zVj7TP42gCINuSB-1" value="CT_CuocTrienLam" style="shape=associativeEntity;whiteSpace=wrap;html=1;align=center;" parent="1" vertex="1">
          <mxGeometry x="385" y="377.5" width="130" height="50" as="geometry" />
        </mxCell>
        <mxCell id="Fws-2zVj7TP42gCINuSB-3" value="Thuộc" style="shape=rhombus;perimeter=rhombusPerimeter;whiteSpace=wrap;html=1;align=center;" parent="1" vertex="1">
          <mxGeometry x="600" y="330" width="80" height="60" as="geometry" />
        </mxCell>
        <mxCell id="Fws-2zVj7TP42gCINuSB-4" value="Thuộc" style="shape=rhombus;perimeter=rhombusPerimeter;whiteSpace=wrap;html=1;align=center;" parent="1" vertex="1">
          <mxGeometry x="601.5" y="170" width="78.5" height="50" as="geometry" />
        </mxCell>
        <mxCell id="Fws-2zVj7TP42gCINuSB-5" value="" style="edgeStyle=orthogonalEdgeStyle;fontSize=12;html=1;endArrow=ERmandOne;rounded=0;entryX=1;entryY=0.75;entryDx=0;entryDy=0;exitX=0;exitY=0.5;exitDx=0;exitDy=0;" parent="1" source="Fws-2zVj7TP42gCINuSB-3" target="xfo9One8N8m6iYTnwiT2-1" edge="1">
          <mxGeometry width="100" height="100" relative="1" as="geometry">
            <mxPoint x="440" y="380" as="sourcePoint" />
            <mxPoint x="540" y="280" as="targetPoint" />
          </mxGeometry>
        </mxCell>
        <mxCell id="Fws-2zVj7TP42gCINuSB-6" value="" style="fontSize=12;html=1;endArrow=ERmandOne;rounded=0;entryX=0;entryY=0.5;entryDx=0;entryDy=0;exitX=1;exitY=0.5;exitDx=0;exitDy=0;" parent="1" source="Fws-2zVj7TP42gCINuSB-3" target="xfo9One8N8m6iYTnwiT2-18" edge="1">
          <mxGeometry width="100" height="100" relative="1" as="geometry">
            <mxPoint x="620" y="520" as="sourcePoint" />
            <mxPoint x="720" y="420" as="targetPoint" />
          </mxGeometry>
        </mxCell>
        <mxCell id="Fws-2zVj7TP42gCINuSB-7" value="" style="edgeStyle=entityRelationEdgeStyle;fontSize=12;html=1;endArrow=ERmandOne;rounded=0;entryX=1;entryY=0.5;entryDx=0;entryDy=0;exitX=0;exitY=0.5;exitDx=0;exitDy=0;" parent="1" source="xfo9One8N8m6iYTnwiT2-14" target="xfo9One8N8m6iYTnwiT2-1" edge="1">
          <mxGeometry width="100" height="100" relative="1" as="geometry">
            <mxPoint x="500" y="320" as="sourcePoint" />
            <mxPoint x="600" y="220" as="targetPoint" />
          </mxGeometry>
        </mxCell>
        <mxCell id="Fws-2zVj7TP42gCINuSB-8" value="" style="fontSize=12;html=1;endArrow=ERmandOne;rounded=0;entryX=1;entryY=0.25;entryDx=0;entryDy=0;exitX=0;exitY=0.5;exitDx=0;exitDy=0;edgeStyle=orthogonalEdgeStyle;" parent="1" source="Fws-2zVj7TP42gCINuSB-4" target="xfo9One8N8m6iYTnwiT2-1" edge="1">
          <mxGeometry width="100" height="100" relative="1" as="geometry">
            <mxPoint x="490" y="220" as="sourcePoint" />
            <mxPoint x="590" y="120" as="targetPoint" />
          </mxGeometry>
        </mxCell>
        <mxCell id="Fws-2zVj7TP42gCINuSB-9" value="" style="fontSize=12;html=1;endArrow=ERmandOne;rounded=0;entryX=0;entryY=0.5;entryDx=0;entryDy=0;exitX=1;exitY=0.5;exitDx=0;exitDy=0;" parent="1" source="Fws-2zVj7TP42gCINuSB-4" target="xfo9One8N8m6iYTnwiT2-16" edge="1">
          <mxGeometry width="100" height="100" relative="1" as="geometry">
            <mxPoint x="680" y="165" as="sourcePoint" />
            <mxPoint x="770" y="110" as="targetPoint" />
          </mxGeometry>
        </mxCell>
        <mxCell id="Fws-2zVj7TP42gCINuSB-11" value="Thuộc" style="shape=rhombus;perimeter=rhombusPerimeter;whiteSpace=wrap;html=1;align=center;" parent="1" vertex="1">
          <mxGeometry x="261.26" y="163.75" width="78.75" height="46.25" as="geometry" />
        </mxCell>
        <mxCell id="Fws-2zVj7TP42gCINuSB-12" value="" style="fontSize=12;html=1;endArrow=ERmandOne;rounded=0;entryX=0.5;entryY=0;entryDx=0;entryDy=0;exitX=0.5;exitY=1;exitDx=0;exitDy=0;" parent="1" source="xfo9One8N8m6iYTnwiT2-15" target="xfo9One8N8m6iYTnwiT2-11" edge="1">
          <mxGeometry width="100" height="100" relative="1" as="geometry">
            <mxPoint x="190" y="480" as="sourcePoint" />
            <mxPoint x="290" y="380" as="targetPoint" />
          </mxGeometry>
        </mxCell>
        <mxCell id="Fws-2zVj7TP42gCINuSB-13" value="" style="fontSize=12;html=1;endArrow=ERoneToMany;rounded=0;entryX=0.25;entryY=1;entryDx=0;entryDy=0;exitX=1;exitY=0.5;exitDx=0;exitDy=0;edgeStyle=orthogonalEdgeStyle;" parent="1" source="xfo9One8N8m6iYTnwiT2-15" target="xfo9One8N8m6iYTnwiT2-1" edge="1">
          <mxGeometry width="100" height="100" relative="1" as="geometry">
            <mxPoint x="310" y="420" as="sourcePoint" />
            <mxPoint x="410" y="320" as="targetPoint" />
          </mxGeometry>
        </mxCell>
        <mxCell id="Fws-2zVj7TP42gCINuSB-14" value="" style="fontSize=12;html=1;endArrow=ERmandOne;rounded=0;entryX=0.5;entryY=1;entryDx=0;entryDy=0;exitX=0.5;exitY=0;exitDx=0;exitDy=0;" parent="1" source="Fws-2zVj7TP42gCINuSB-11" target="xfo9One8N8m6iYTnwiT2-9" edge="1">
          <mxGeometry width="100" height="100" relative="1" as="geometry">
            <mxPoint x="210" y="270" as="sourcePoint" />
            <mxPoint x="310" y="170" as="targetPoint" />
          </mxGeometry>
        </mxCell>
        <mxCell id="Fws-2zVj7TP42gCINuSB-15" value="" style="edgeStyle=orthogonalEdgeStyle;fontSize=12;html=1;endArrow=ERoneToMany;rounded=0;entryX=0.25;entryY=0;entryDx=0;entryDy=0;exitX=1;exitY=0.5;exitDx=0;exitDy=0;" parent="1" source="Fws-2zVj7TP42gCINuSB-11" target="xfo9One8N8m6iYTnwiT2-1" edge="1">
          <mxGeometry width="100" height="100" relative="1" as="geometry">
            <mxPoint x="310" y="280" as="sourcePoint" />
            <mxPoint x="400" y="220" as="targetPoint" />
          </mxGeometry>
        </mxCell>
        <mxCell id="tG3KJouz0oP1RZosRJ1Q-2" value="" style="edgeStyle=orthogonalEdgeStyle;rounded=0;orthogonalLoop=1;jettySize=auto;html=1;exitX=0;exitY=0.5;exitDx=0;exitDy=0;endArrow=ERmandOne;endFill=0;" parent="1" source="xfo9One8N8m6iYTnwiT2-12" target="xfo9One8N8m6iYTnwiT2-13" edge="1">
          <mxGeometry relative="1" as="geometry">
            <mxPoint x="124" y="390" as="targetPoint" />
            <Array as="points">
              <mxPoint x="128" y="527" />
            </Array>
            <mxPoint x="262" y="527" as="sourcePoint" />
          </mxGeometry>
        </mxCell>
        <mxCell id="xfo9One8N8m6iYTnwiT2-13" value="BoSuuTap" style="whiteSpace=wrap;html=1;align=center;" parent="1" vertex="1">
          <mxGeometry x="67.5" y="420" width="120" height="50" as="geometry" />
        </mxCell>
        <mxCell id="sRuicUQdJqVPTKlH2WR7-2" style="edgeStyle=orthogonalEdgeStyle;rounded=0;orthogonalLoop=1;jettySize=auto;html=1;exitX=0.5;exitY=1;exitDx=0;exitDy=0;entryX=0.5;entryY=0;entryDx=0;entryDy=0;endArrow=ERoneToMany;endFill=0;" parent="1" source="sRuicUQdJqVPTKlH2WR7-1" target="xfo9One8N8m6iYTnwiT2-13" edge="1">
          <mxGeometry relative="1" as="geometry">
            <Array as="points">
              <mxPoint x="128" y="370" />
              <mxPoint x="128" y="370" />
            </Array>
          </mxGeometry>
        </mxCell>
        <mxCell id="sRuicUQdJqVPTKlH2WR7-6" style="edgeStyle=orthogonalEdgeStyle;rounded=0;orthogonalLoop=1;jettySize=auto;html=1;exitX=0.5;exitY=0;exitDx=0;exitDy=0;entryX=0.5;entryY=1;entryDx=0;entryDy=0;endArrow=ERmandOne;endFill=0;" parent="1" source="sRuicUQdJqVPTKlH2WR7-1" target="sRuicUQdJqVPTKlH2WR7-3" edge="1">
          <mxGeometry relative="1" as="geometry" />
        </mxCell>
        <mxCell id="sRuicUQdJqVPTKlH2WR7-1" value="Thực hiện giao dịch" style="shape=rhombus;perimeter=rhombusPerimeter;whiteSpace=wrap;html=1;align=center;" parent="1" vertex="1">
          <mxGeometry x="55.31999999999999" y="288.75" width="144.37" height="56.25" as="geometry" />
        </mxCell>
        <mxCell id="sRuicUQdJqVPTKlH2WR7-3" value="NhanVien" style="whiteSpace=wrap;html=1;align=center;" parent="1" vertex="1">
          <mxGeometry x="72.5" y="170" width="110" height="50" as="geometry" />
        </mxCell>
      </root>
    </mxGraphModel>
  </diagram>
</mxfile>
